<svg xmlns="http://www.w3.org/2000/svg" width="256" height="256" viewBox="0 0 100 100"><rect width="100" height="100" rx="50" fill="#000000"></rect><path fill="#ffffff" d="M4.72 45.14L5.24 45.14L5.24 51.73L11.85 45.14L12.58 45.14L8.50 49.20L12.56 54.88L11.95 54.88L8.14 49.56L5.24 52.46L5.24 54.88L4.72 54.88L4.72 45.14ZM15.57 45.14L21.89 45.14L21.89 45.65L18.98 45.65L18.98 54.36L21.89 54.36L21.89 54.88L15.57 54.88L15.57 54.36L18.47 54.36L18.47 45.65L15.57 45.65L15.57 45.14ZM28.99 45.14Q30.05 45.14 30.95 45.67Q31.86 46.20 32.39 47.10Q32.92 48.01 32.92 49.07L32.92 49.07L32.92 50.95Q32.92 52.01 32.39 52.91Q31.86 53.82 30.95 54.35Q30.05 54.88 28.99 54.88L28.99 54.88L25.39 54.88L25.39 45.14L28.99 45.14ZM32.40 50.95L32.40 49.07Q32.40 48.15 31.94 47.36Q31.48 46.58 30.69 46.12Q29.90 45.65 28.97 45.65L28.97 45.65L25.91 45.65L25.91 54.36L28.97 54.36Q29.90 54.36 30.69 53.90Q31.48 53.44 31.94 52.65Q32.40 51.87 32.40 50.95L32.40 50.95ZM39.65 50.22Q38.46 49.98 37.72 49.69Q36.97 49.41 36.54 48.91Q36.11 48.41 36.11 47.63L36.11 47.63Q36.11 46.82 36.54 46.20Q36.97 45.58 37.74 45.25Q38.52 44.91 39.54 44.91L39.54 44.91Q40.52 44.91 41.34 45.32Q42.16 45.74 42.64 46.48Q43.11 47.22 43.11 48.17L43.11 48.17L42.59 48.17Q42.59 47.35 42.19 46.72Q41.78 46.09 41.08 45.74Q40.38 45.40 39.53 45.40L39.53 45.40Q38.77 45.40 38.11 45.64Q37.46 45.88 37.04 46.37Q36.63 46.86 36.63 47.60L36.63 47.60Q36.63 48.27 37.02 48.67Q37.41 49.07 38.04 49.28Q38.67 49.49 39.81 49.73L39.81 49.73Q40.96 49.97 41.59 50.18Q42.23 50.40 42.67 50.90Q43.11 51.41 43.11 52.32L43.11 52.32Q43.11 53.23 42.63 53.85Q42.15 54.47 41.35 54.78Q40.55 55.09 39.61 55.09L39.61 55.09Q38.45 55.09 37.57 54.66Q36.69 54.22 36.22 53.43Q35.75 52.64 35.75 51.62L35.75 51.62L36.27 51.62Q36.27 52.51 36.67 53.19Q37.06 53.86 37.82 54.23Q38.58 54.60 39.61 54.60L39.61 54.60Q40.90 54.60 41.75 53.98Q42.59 53.37 42.59 52.30L42.59 52.30Q42.59 51.58 42.23 51.18Q41.87 50.79 41.31 50.62Q40.76 50.44 39.65 50.22L39.65 50.22ZM50.01 50.22Q48.82 49.98 48.08 49.69Q47.33 49.41 46.90 48.91Q46.47 48.41 46.47 47.63L46.47 47.63Q46.47 46.82 46.90 46.20Q47.33 45.58 48.10 45.25Q48.88 44.91 49.90 44.91L49.90 44.91Q50.88 44.91 51.70 45.32Q52.52 45.74 53.00 46.48Q53.47 47.22 53.47 48.17L53.47 48.17L52.95 48.17Q52.95 47.35 52.55 46.72Q52.14 46.09 51.44 45.74Q50.74 45.40 49.89 45.40L49.89 45.40Q49.13 45.40 48.47 45.64Q47.82 45.88 47.40 46.37Q46.99 46.86 46.99 47.60L46.99 47.60Q46.99 48.27 47.38 48.67Q47.77 49.07 48.40 49.28Q49.03 49.49 50.17 49.73L50.17 49.73Q51.32 49.97 51.95 50.18Q52.59 50.40 53.03 50.90Q53.47 51.41 53.47 52.32L53.47 52.32Q53.47 53.23 52.99 53.85Q52.51 54.47 51.71 54.78Q50.91 55.09 49.97 55.09L49.97 55.09Q48.81 55.09 47.93 54.66Q47.05 54.22 46.58 53.43Q46.11 52.64 46.11 51.62L46.11 51.62L46.63 51.62Q46.63 52.51 47.03 53.19Q47.42 53.86 48.18 54.23Q48.94 54.60 49.97 54.60L49.97 54.60Q51.26 54.60 52.11 53.98Q52.95 53.37 52.95 52.30L52.95 52.30Q52.95 51.58 52.59 51.18Q52.23 50.79 51.67 50.62Q51.12 50.44 50.01 50.22L50.01 50.22ZM56.23 45.14L64.10 45.14L64.10 45.65L60.42 45.65L60.42 54.88L59.91 54.88L59.91 45.65L56.23 45.65L56.23 45.14ZM66.59 51.16L66.59 45.14L67.11 45.14L67.11 51.16Q67.11 52.08 67.57 52.86Q68.03 53.65 68.82 54.11Q69.60 54.57 70.52 54.57L70.52 54.57Q71.45 54.57 72.23 54.11Q73.02 53.65 73.48 52.86Q73.94 52.08 73.94 51.16L73.94 51.16L73.94 45.14L74.46 45.14L74.46 51.16Q74.46 52.22 73.93 53.12Q73.39 54.03 72.49 54.56Q71.59 55.09 70.52 55.09L70.52 55.09Q69.46 55.09 68.56 54.56Q67.65 54.03 67.12 53.12Q66.59 52.22 66.59 51.16L66.59 51.16ZM77.65 54.88L77.65 45.14L84.92 45.14L84.92 45.65L78.17 45.65L78.17 49.74L83.63 49.74L83.63 50.26L78.17 50.26L78.17 54.88L77.65 54.88ZM88.01 54.88L88.01 45.14L95.28 45.14L95.28 45.65L88.53 45.65L88.53 49.74L93.99 49.74L93.99 50.26L88.53 50.26L88.53 54.88L88.01 54.88Z"></path></svg>